<?xml version="1.0" encoding="UTF-8" standalone="no"?>
<!DOCTYPE svg PUBLIC "-//W3C//DTD SVG 1.1//EN" "http://www.w3.org/Graphics/SVG/1.1/DTD/svg11.dtd">
<svg width="100%" height="100%" viewBox="0 0 1281 235" version="1.1" xmlns="http://www.w3.org/2000/svg" xmlns:xlink="http://www.w3.org/1999/xlink" xml:space="preserve" xmlns:serif="http://www.serif.com/" style="fill-rule:evenodd;clip-rule:evenodd;stroke-linejoin:round;stroke-miterlimit:2;">
    <g id="Ebene_3">
        <path d="M256.039,165.593L283.166,141.658C295.876,153.563 312.711,160.101 330.124,159.895C346.079,159.895 356.11,155.564 356.11,146.674C356.11,140.291 350.867,136.872 338.101,134.364L310.292,129.122C278.835,123.195 262.651,108.378 262.651,83.076C262.651,52.075 286.813,32.015 326.703,32.015C355.88,32.015 378.448,42.273 393.72,62.333L367.05,82.848C357.249,71.906 343.344,66.208 326.703,66.208C312.344,66.208 305.049,70.311 305.049,77.377C305.049,83.076 309.836,86.495 320.321,88.547L352.234,94.473C384.374,100.4 399.646,114.989 399.646,141.658C399.646,175.851 373.432,196.139 329.438,196.139C298.211,196.139 274.277,186.336 256.039,165.593Z" style="fill:white;fill-rule:nonzero;"/>
        <path d="M415.367,156.931L415.367,116.812L402.601,116.812L402.601,84.444L406.705,84.444C416.734,84.444 420.381,80.797 420.381,70.083L420.381,52.531L451.838,52.531L451.838,84.444L475.544,84.444L475.544,116.812L451.838,116.812L451.838,150.32C451.838,159.667 456.398,163.086 464.602,163.086C468.511,162.98 472.402,162.522 476.228,161.718L476.228,192.491C468.779,194.847 461.019,196.077 453.207,196.139C426.763,196.139 415.367,181.093 415.367,156.931Z" style="fill:white;fill-rule:nonzero;"/>
        <path d="M480.556,139.152C480.556,104.503 503.124,82.164 538.228,82.164C573.331,82.164 595.899,104.503 595.899,139.152C595.899,173.799 573.331,196.139 538.228,196.139C503.124,196.139 480.556,173.799 480.556,139.152ZM538.228,161.262C550.764,161.262 558.515,152.372 558.515,139.152C558.515,125.702 550.536,117.04 538.228,117.04C525.919,117.04 517.94,125.702 517.94,139.152C517.94,152.372 525.689,161.262 538.228,161.262Z" style="fill:white;fill-rule:nonzero;"/>
        <path d="M605.168,84.444L632.978,84.444L636.169,96.981C643.918,87.407 652.125,83.304 662.611,83.304C666.285,83.345 669.948,83.726 673.551,84.444L673.551,116.812L661.243,116.812C647.567,116.812 641.64,123.423 641.64,138.695L641.64,193.859L605.168,193.859L605.168,84.444Z" style="fill:white;fill-rule:nonzero;"/>
        <path d="M691.326,232.155L691.326,203.205C694.93,203.926 698.593,204.307 702.268,204.344C710.7,204.344 715.032,201.381 715.032,195.682C715.032,193.404 714.349,190.896 713.208,187.248L678.56,84.444L717.312,84.444L738.511,153.74L738.967,153.74L757.658,84.444L794.358,84.444L759.482,193.859C749.453,225.087 733.496,234.89 712.069,234.89C705.069,234.834 698.102,233.915 691.326,232.155Z" style="fill:white;fill-rule:nonzero;"/>
        <path d="M789.496,139.152C789.496,104.503 812.063,82.164 846.711,82.164C876.344,82.164 894.352,99.032 899.595,124.106L867.227,133.681C864.719,123.423 857.653,117.04 847.167,117.04C834.858,117.04 826.652,125.702 826.652,139.152C826.652,152.372 834.63,161.262 847.167,161.262C857.653,161.262 865.402,155.107 868.366,145.306L901.191,152.828C895.948,178.815 877.028,196.139 846.711,196.139C812.063,196.139 789.496,173.799 789.496,139.152Z" style="fill:white;fill-rule:nonzero;"/>
        <rect x="909.161" y="34.295" width="36.471" height="159.564" style="fill:white;fill-rule:nonzero;"/>
        <path d="M954.974,139.152C954.974,105.187 977.086,82.848 1007.4,82.848C1021.31,82.848 1031.11,87.407 1037.95,92.878L1040.23,84.444L1068.27,84.444L1068.27,193.859L1040.23,193.859L1037.95,185.425C1031.11,190.896 1021.31,195.454 1007.4,195.454C977.086,195.454 954.974,173.116 954.974,139.152ZM1013.1,161.946C1026.1,161.946 1034.53,152.828 1034.53,139.152C1034.53,125.474 1026.1,116.356 1013.1,116.356C1000.11,116.356 992.13,125.474 992.13,139.152C992.13,152.828 1000.11,161.946 1013.1,161.946Z" style="fill:white;fill-rule:nonzero;"/>
        <path d="M1074.82,169.468L1101.72,156.703C1105.97,163.665 1113.63,167.845 1121.78,167.645C1127.94,167.645 1133.86,165.593 1133.86,161.034C1133.86,157.387 1130.22,155.791 1125.2,154.424L1108.1,149.865C1089.18,144.849 1079.15,134.136 1079.15,117.268C1079.15,95.386 1096.48,82.164 1121.78,82.164C1140.93,82.164 1158.03,89.687 1166.69,107.694L1142.53,119.548C1138.26,112.866 1130.85,108.818 1122.92,108.834C1116.99,108.834 1113.8,110.885 1113.8,114.533C1113.8,118.18 1116.99,120.003 1122.92,121.371L1139.33,125.246C1159.85,130.033 1170.34,140.291 1170.34,158.983C1170.34,182.69 1151.87,196.139 1122.92,196.139C1100.81,196.139 1083.49,188.389 1074.82,169.468Z" style="fill:white;fill-rule:nonzero;"/>
        <path d="M1179.08,34.295L1215.55,34.295L1215.55,93.333C1222.62,86.039 1231.05,82.164 1243.82,82.164C1264.56,82.164 1280.52,92.65 1280.52,125.246L1280.52,193.859L1244.04,193.859L1244.04,134.136C1244.04,122.511 1239.26,117.04 1230.37,117.04C1220.11,117.04 1215.55,124.334 1215.55,135.048L1215.55,193.859L1179.08,193.859L1179.08,34.295Z" style="fill:white;fill-rule:nonzero;"/>
        <path d="M120.237,41.726L85.524,143.438C84.487,146.475 81.616,148.53 78.406,148.53C77.247,148.53 76.103,148.262 75.065,147.747L6.312,113.654C2.768,111.896 0.517,108.267 0.517,104.311C0.517,100.796 2.294,97.509 5.237,95.584L105.31,30.134C106.936,29.071 108.837,28.505 110.78,28.505C116.262,28.505 120.773,33.016 120.773,38.498C120.773,39.596 120.592,40.686 120.237,41.726Z" style="fill:rgb(25,183,118);fill-rule:nonzero;"/>
        <path d="M90.459,193.274L125.174,91.558C126.21,88.522 129.08,86.469 132.288,86.469C133.447,86.469 134.59,86.737 135.628,87.252L204.385,121.347C207.929,123.104 210.18,126.733 210.18,130.689C210.18,134.204 208.402,137.491 205.46,139.416L105.387,204.866C103.761,205.929 101.86,206.495 99.917,206.495C94.435,206.495 89.924,201.984 89.924,196.502C89.924,195.404 90.105,194.314 90.459,193.274Z" style="fill:rgb(25,183,118);fill-rule:nonzero;"/>
    </g>
</svg>
