<?xml version="1.0" encoding="UTF-8"?>
<svg id="Ebene_1" data-name="Ebene 1" xmlns="http://www.w3.org/2000/svg" width="248.86" height="116" xmlns:xlink="http://www.w3.org/1999/xlink" viewBox="0 0 248.86 116">
  <defs>
    <clipPath id="clippath">
      <rect width="248.86" height="116" fill="none"/>
    </clipPath>
    <clipPath id="clippath-1">
      <rect x="162.43" y="34" width="56.06" height="47.78" fill="none"/>
    </clipPath>
  </defs>
  <g clip-path="url(#clippath)">
    <g>
      <g>
        <rect x="8.43" y="8.43" width="99.14" height="99.14" rx="49.57" ry="49.57" fill="#f7f8f8"/>
        <rect x="8.43" y="8.43" width="99.14" height="99.14" rx="49.57" ry="49.57" fill="none" stroke="#fff" stroke-width="3.72"/>
      </g>
      <rect x="34.43" y="30" width="48.71" height="55.29" fill="#f7f8f8"/>
      <path d="M125.75,57.98l4.08-4.04.83-.83c.12-.12.12-.32,0-.47l-.87-.87c-.16-.12-.36-.12-.48,0l-4.87,4.91-4.91-4.91c-.12-.12-.32-.12-.47,0l-.87.87c-.12.16-.12.36,0,.47l4.91,4.87-4.91,4.91c-.12.12-.12.32,0,.47l.87.87c.16.12.36.12.47,0l4.91-4.91,4.04,4.08.83.83c.12.12.32.12.48,0l.87-.87c.12-.16.12-.36,0-.47l-4.91-4.91Z" fill="#233c42"/>
      <g>
        <rect x="141.29" y="8.43" width="99.14" height="99.14" rx="49.57" ry="49.57" fill="#f7f8f8"/>
        <rect x="141.29" y="8.43" width="99.14" height="99.14" rx="49.57" ry="49.57" fill="none" stroke="#fff" stroke-width="3.72"/>
      </g>
      <g clip-path="url(#clippath-1)">
        <g>
          <path d="M194.44,37.57l-9.28,27.27c-.09.27-.24.52-.44.73-.2.21-.43.37-.7.48-.26.11-.55.16-.84.15-.29,0-.57-.08-.82-.21l-18.38-9.14c-1.93-.96-2.09-3.66-.29-4.84l26.76-17.55c2.13-1.4,4.81.7,3.99,3.11Z" fill="#19b776"/>
          <path d="M186.48,78.2l9.28-27.27c.09-.27.24-.52.44-.73.2-.21.43-.37.7-.48.26-.11.55-.16.84-.15.29.01.57.08.82.21l18.38,9.14c1.93.96,2.09,3.66.29,4.84l-26.76,17.55c-2.13,1.4-4.81-.7-3.99-3.11Z" fill="#19b776"/>
        </g>
      </g>
      <g id="_Groupe_2" data-name=" Groupe 2">
        <path id="_Tracé_2" data-name=" Tracé 2" d="M76.21,82.56c-2.58-2.02-6.35-3.53-10.38-5.14-4.79-1.91-10.23-4.1-14.25-7.51-4.45-3.46-7-8.96-6.84-14.74-.1-5.3,2.24-10.32,6.3-13.51,4.63-3.81,11.62-5.77,20.23-5.77,2.26,0,4.53.15,6.77.45.19.02.37-.09.44-.28.1-.17.06-.4-.11-.51-12.14-11.4-30.86-10.38-41.79,2.28-10.94,12.66-9.96,32.16,2.18,43.56,5.43,5.09,12.47,7.92,19.77,7.93,6.34.03,12.51-2.09,17.59-6.05.09-.09.15-.21.16-.34.05-.12,0-.23-.07-.34Z" fill="#189eff"/>
        <path id="_Tracé_3" data-name=" Tracé 3" d="M88.01,55.65c0-.12-.06-.23-.16-.28-6.19-5.33-11.19-7.51-17.26-7.51-3.22,0-5.7.68-7.4,2.02-1.42,1.08-2.24,2.82-2.21,4.65,0,5.27,6.25,7.71,13.4,10.54,3.81,1.37,7.51,3.04,11.08,4.99.06.04.14.06.21.05.06,0,.12-.01.16-.05.13-.05.22-.15.27-.28,1.34-3.59,2.04-7.41,2.04-11.27,0-.96-.03-1.91-.13-2.86Z" fill="#189eff"/>
      </g>
    </g>
  </g>
</svg>