<svg width="249" height="116" viewBox="0 0 249 116" fill="none" xmlns="http://www.w3.org/2000/svg">
<g clip-path="url(#clip0_116_3210)">
<g filter="url(#filter0_d_116_3210)">
<rect x="8.42969" y="8.42969" width="99.1407" height="99.1408" rx="49.5703" fill="#F7F8F8"/>
<rect x="8.42969" y="8.42969" width="99.1407" height="99.1408" rx="49.5703" stroke="white" stroke-width="3.71778"/>
</g>
<rect width="48.7149" height="55.292" transform="translate(34.4297 30)" fill="#F7F8F8"/>
<path d="M77.1249 40.8132C77.1249 41.0361 83.1446 81.7248 83.1446 81.7248L69.2102 85.292V37.023C70.102 37.9148 72.443 40.2558 72.443 40.2558C72.443 40.2558 76.3446 40.3673 76.5676 40.3673C76.902 40.3673 77.1249 40.4787 77.1249 40.8132ZM65.9774 37.023C66.9806 36.6885 67.538 36.5771 67.6495 36.5771C67.761 36.4656 67.9839 36.4656 68.0954 36.4656V85.292L34.4297 79.4953C34.4297 79.4953 38.5543 48.0591 38.6658 46.9443C38.7772 45.4951 38.8887 45.4951 40.4494 44.9378C40.4494 44.9378 42.5674 44.2689 45.6887 43.2656C46.0232 40.9246 47.1379 37.9148 48.6986 35.4623C50.8166 32.0066 53.4921 30.1115 56.1675 30C57.6167 30 58.7314 30.4459 59.6232 31.4492C59.6232 31.5607 59.7347 31.5607 59.8462 31.6721C59.9577 31.6721 60.0691 31.5607 60.1806 31.5607C60.1806 31.5607 60.1806 31.5607 60.2921 31.5607C62.2987 31.5607 64.0823 32.7869 65.197 35.0164C65.5314 35.6853 65.7544 36.3541 65.9774 37.023ZM59.8462 38.9181C59.8462 37.4689 59.7347 35.2394 58.9544 33.6787C58.174 34.0131 57.5052 34.5705 57.0593 35.1279C55.7216 36.4656 54.7183 38.5836 54.1609 40.7017C56.056 40.1443 58.0626 39.4754 59.8462 38.9181ZM56.1675 31.8951C52.0429 32.0066 48.4756 38.4722 47.4724 42.7082C48.9215 42.2623 50.5937 41.8164 52.1543 41.2591C52.7117 38.5836 53.938 35.6853 55.7216 33.9017C56.3904 33.2328 57.0593 32.6754 57.8396 32.2295C57.3937 32.0066 56.8363 31.8951 56.279 31.8951H56.1675ZM51.0396 56.4198C50.9281 55.8624 51.0396 53.7444 54.2724 53.5214C56.6134 53.4099 58.5085 54.3017 58.5085 54.3017L60.1806 47.8361C60.1806 47.8361 58.7314 47.1673 55.8331 47.2788C48.3642 47.8361 44.9084 53.0755 45.2428 58.2034C45.6887 64.3346 51.8199 64.1116 52.0429 67.9018C52.1543 68.7936 51.4855 70.1313 49.9248 70.1313C47.5838 70.3542 44.574 68.1247 44.574 68.1247L43.4592 73.0297C43.4592 73.0297 46.3576 76.151 51.8199 75.8166C56.3904 75.5936 59.5118 71.9149 59.1773 66.6755C58.7314 59.8755 51.1511 59.3181 51.0396 56.4198ZM61.6298 38.3607C62.6331 38.1377 63.5249 37.8033 64.3052 37.5804C63.8593 36.2426 62.856 33.9017 60.8495 33.5672C61.4068 35.1279 61.6298 37.023 61.6298 38.3607Z" fill="#95BF47"/>
<path d="M125.755 57.9801L129.831 53.9434L130.663 53.1123C130.781 52.9936 130.781 52.7957 130.663 52.6374L129.792 51.7668C129.634 51.6481 129.436 51.6481 129.317 51.7668L124.449 56.6742L119.542 51.7668C119.423 51.6481 119.225 51.6481 119.067 51.7668L118.196 52.6374C118.077 52.7957 118.077 52.9936 118.196 53.1123L123.104 57.9801L118.196 62.8875C118.077 63.0062 118.077 63.2041 118.196 63.3624L119.067 64.2331C119.225 64.3518 119.423 64.3518 119.542 64.2331L124.449 59.3257L128.486 63.402L129.317 64.2331C129.436 64.3518 129.634 64.3518 129.792 64.2331L130.663 63.3624C130.781 63.2041 130.781 63.0062 130.663 62.8875L125.755 57.9801Z" fill="#233C42"/>
<g filter="url(#filter1_d_116_3210)">
<rect x="141.289" y="8.42969" width="99.1407" height="99.1408" rx="49.5703" fill="#F7F8F8"/>
<rect x="141.289" y="8.42969" width="99.1407" height="99.1408" rx="49.5703" stroke="white" stroke-width="3.71778"/>
</g>
<g clip-path="url(#clip1_116_3210)">
<path d="M194.44 37.5744L185.158 64.8427C185.066 65.1145 184.917 65.3632 184.72 65.5724C184.524 65.7816 184.286 65.9464 184.021 66.0558C183.756 66.1651 183.471 66.2165 183.185 66.2065C182.899 66.1966 182.618 66.1254 182.362 65.9979L163.979 56.8578C162.047 55.8975 161.887 53.1967 163.691 52.0135L190.449 34.4669C192.576 33.0719 195.261 35.1623 194.44 37.5744Z" fill="#19B776"/>
<path d="M186.478 78.2035L195.76 50.9342C195.852 50.6626 196.002 50.414 196.198 50.2049C196.394 49.9958 196.632 49.8311 196.896 49.7218C197.161 49.6124 197.446 49.5611 197.732 49.571C198.018 49.581 198.299 49.6521 198.555 49.7796L216.939 58.9202C218.87 59.8805 219.031 62.5813 217.226 63.7644L190.469 81.311C188.342 82.7061 185.657 80.6156 186.478 78.2035Z" fill="#19B776"/>
</g>
</g>
<defs>
<filter id="filter0_d_116_3210" x="-8.67656" y="-6.77064" width="133.353" height="133.353" filterUnits="userSpaceOnUse" color-interpolation-filters="sRGB">
<feFlood flood-opacity="0" result="BackgroundImageFix"/>
<feColorMatrix in="SourceAlpha" type="matrix" values="0 0 0 0 0 0 0 0 0 0 0 0 0 0 0 0 0 0 127 0" result="hardAlpha"/>
<feOffset dy="1.90592"/>
<feGaussianBlur stdDeviation="7.62368"/>
<feComposite in2="hardAlpha" operator="out"/>
<feColorMatrix type="matrix" values="0 0 0 0 0 0 0 0 0 0 0 0 0 0 0 0 0 0 0.15 0"/>
<feBlend mode="normal" in2="BackgroundImageFix" result="effect1_dropShadow_116_3210"/>
<feBlend mode="normal" in="SourceGraphic" in2="effect1_dropShadow_116_3210" result="shape"/>
</filter>
<filter id="filter1_d_116_3210" x="124.182" y="-6.77064" width="133.353" height="133.353" filterUnits="userSpaceOnUse" color-interpolation-filters="sRGB">
<feFlood flood-opacity="0" result="BackgroundImageFix"/>
<feColorMatrix in="SourceAlpha" type="matrix" values="0 0 0 0 0 0 0 0 0 0 0 0 0 0 0 0 0 0 127 0" result="hardAlpha"/>
<feOffset dy="1.90592"/>
<feGaussianBlur stdDeviation="7.62368"/>
<feComposite in2="hardAlpha" operator="out"/>
<feColorMatrix type="matrix" values="0 0 0 0 0 0 0 0 0 0 0 0 0 0 0 0 0 0 0.15 0"/>
<feBlend mode="normal" in2="BackgroundImageFix" result="effect1_dropShadow_116_3210"/>
<feBlend mode="normal" in="SourceGraphic" in2="effect1_dropShadow_116_3210" result="shape"/>
</filter>
<clipPath id="clip0_116_3210">
<rect width="248.859" height="116" fill="white"/>
</clipPath>
<clipPath id="clip1_116_3210">
<rect width="56.0594" height="47.7779" fill="white" transform="translate(162.429 34)"/>
</clipPath>
</defs>
</svg>
