<?xml version="1.0" encoding="UTF-8"?>
<svg id="Ebene_1" data-name="Ebene 1" xmlns="http://www.w3.org/2000/svg" width="248.86" height="116" xmlns:xlink="http://www.w3.org/1999/xlink" viewBox="0 0 248.86 116">
  <defs>
    <clipPath id="clippath">
      <rect width="248.86" height="116" fill="none"/>
    </clipPath>
    <clipPath id="clippath-1">
      <rect x="162.43" y="34" width="56.06" height="47.78" fill="none"/>
    </clipPath>
  </defs>
  <g clip-path="url(#clippath)">
    <g>
      <g>
        <path d="M58,8.43h0c27.38,0,49.57,22.19,49.57,49.57h0c0,27.38-22.19,49.57-49.57,49.57h0c-27.38,0-49.57-22.19-49.57-49.57h0c0-27.38,22.19-49.57,49.57-49.57Z" fill="#f7f8f8"/>
        <path d="M58,8.43h0c27.38,0,49.57,22.19,49.57,49.57h0c0,27.38-22.19,49.57-49.57,49.57h0c-27.38,0-49.57-22.19-49.57-49.57h0c0-27.38,22.19-49.57,49.57-49.57Z" fill="none" stroke="#fff" stroke-width="3.72"/>
      </g>
      <rect x="34.43" y="30" width="48.71" height="55.29" fill="#f7f8f8"/>
      <path d="M125.75,57.98l4.08-4.04.83-.83c.12-.12.12-.32,0-.47l-.87-.87c-.16-.12-.36-.12-.48,0l-4.87,4.91-4.91-4.91c-.12-.12-.32-.12-.47,0l-.87.87c-.12.16-.12.36,0,.47l4.91,4.87-4.91,4.91c-.12.12-.12.32,0,.47l.87.87c.16.12.36.12.47,0l4.91-4.91,4.04,4.08.83.83c.12.12.32.12.48,0l.87-.87c.12-.16.12-.36,0-.47l-4.91-4.91h0Z" fill="#233c42"/>
      <g>
        <path d="M190.86,8.43h0c27.38,0,49.57,22.19,49.57,49.57h0c0,27.38-22.19,49.57-49.57,49.57h0c-27.38,0-49.57-22.19-49.57-49.57h0c0-27.38,22.19-49.57,49.57-49.57Z" fill="#f7f8f8"/>
        <path d="M190.86,8.43h0c27.38,0,49.57,22.19,49.57,49.57h0c0,27.38-22.19,49.57-49.57,49.57h0c-27.38,0-49.57-22.19-49.57-49.57h0c0-27.38,22.19-49.57,49.57-49.57Z" fill="none" stroke="#fff" stroke-width="3.72"/>
      </g>
      <g clip-path="url(#clippath-1)">
        <g>
          <path d="M194.44,37.57l-9.28,27.27c-.09.27-.24.52-.44.73-.2.21-.43.37-.7.48-.26.11-.55.16-.84.15-.29,0-.57-.08-.82-.21l-18.38-9.14c-1.93-.96-2.09-3.66-.29-4.84l26.76-17.55c2.13-1.4,4.81.7,3.99,3.11Z" fill="#19b776"/>
          <path d="M186.48,78.2l9.28-27.27c.09-.27.24-.52.44-.73s.43-.37.7-.48c.26-.11.55-.16.84-.15s.57.08.82.21l18.38,9.14c1.93.96,2.09,3.66.29,4.84l-26.76,17.55c-2.13,1.4-4.81-.7-3.99-3.11Z" fill="#19b776"/>
        </g>
      </g>
      <g>
        <path d="M50.2,33.32h-24.46v49.36l24.46-49.36Z" fill="#fa0c00"/>
        <path d="M67.41,33.32h24.43v49.36l-24.43-49.36Z" fill="#fa0c00"/>
        <path d="M58.8,51.51l15.57,31.17h-10.21l-4.65-9.92h-11.39l10.69-21.24Z" fill="#fa0c00"/>
      </g>
    </g>
  </g>
</svg>