<?xml version="1.0" encoding="UTF-8"?>
<svg id="Ebene_1" data-name="Ebene 1" xmlns="http://www.w3.org/2000/svg" width="87.79mm" height="40.92mm" xmlns:xlink="http://www.w3.org/1999/xlink" viewBox="0 0 248.86 116">
  <defs>
    <clipPath id="clippath">
      <rect width="248.86" height="116" fill="none"/>
    </clipPath>
    <clipPath id="clippath-1">
      <rect x="162.43" y="34" width="56.06" height="47.78" fill="none"/>
    </clipPath>
  </defs>
  <g clip-path="url(#clippath)">
    <g>
      <g>
        <rect x="8.43" y="8.43" width="99.14" height="99.14" rx="49.57" ry="49.57" fill="#f7f8f8"/>
        <rect x="8.43" y="8.43" width="99.14" height="99.14" rx="49.57" ry="49.57" fill="none" stroke="#fff" stroke-width="3.72"/>
      </g>
      <g>
        <path d="M58.74,48.05h-1.49c0-.21,0-.35,0-.39,0-.48.08-.88.24-1.2s.48-.66.96-1.05.77-.65.86-.77c.14-.19.22-.4.22-.63,0-.32-.13-.59-.38-.82s-.6-.34-1.03-.34-.77.12-1.05.36-.47.6-.58,1.09l-1.51-.19c.04-.7.34-1.29.89-1.78s1.28-.73,2.18-.73c.95,0,1.7.25,2.26.74s.84,1.07.84,1.73c0,.36-.1.71-.31,1.03s-.64.77-1.32,1.32c-.35.29-.56.52-.65.7s-.12.49-.11.94ZM57.24,50.27v-1.65h1.65v1.65h-1.65Z"/>
        <path d="M28.53,64.67v-8.59h2.78c1.05,0,1.74.04,2.06.13.49.13.9.41,1.24.84s.5.99.5,1.67c0,.53-.1.97-.29,1.33s-.43.64-.73.85-.59.34-.9.41c-.41.08-1.01.12-1.8.12h-1.13v3.24h-1.73ZM30.26,57.53v2.44h.95c.68,0,1.14-.04,1.37-.13s.41-.23.54-.42.2-.41.2-.67c0-.31-.09-.57-.28-.77s-.42-.33-.7-.38c-.21-.04-.62-.06-1.25-.06h-.84Z"/>
        <path d="M36.52,64.67v-8.59h1.65v8.59h-1.65Z"/>
        <path d="M41.09,60.34l-1.49-.27c.17-.6.46-1.05.87-1.34s1.02-.43,1.83-.43c.73,0,1.28.09,1.64.26s.61.39.76.66.22.76.22,1.47l-.02,1.92c0,.55.03.95.08,1.21s.15.54.3.83h-1.63c-.04-.11-.1-.27-.16-.49-.03-.1-.05-.16-.06-.19-.28.27-.58.48-.9.62s-.66.21-1.03.21c-.64,0-1.15-.17-1.51-.52s-.55-.79-.55-1.32c0-.35.08-.67.25-.94s.4-.49.71-.63.74-.27,1.31-.38c.77-.14,1.3-.28,1.6-.4v-.16c0-.32-.08-.54-.23-.68s-.45-.2-.88-.2c-.29,0-.52.06-.69.17s-.3.32-.4.61ZM43.29,61.68c-.21.07-.54.15-1,.25s-.76.19-.9.29c-.21.15-.32.35-.32.58s.09.43.26.6.39.25.66.25c.3,0,.58-.1.85-.29.2-.15.33-.33.39-.54.04-.14.06-.41.06-.8v-.33Z"/>
        <path d="M49.38,58.45v1.31h-1.12v2.51c0,.51.01.8.03.89s.07.15.15.21.17.08.28.08c.15,0,.37-.05.66-.16l.14,1.28c-.38.16-.82.25-1.3.25-.3,0-.56-.05-.8-.15s-.41-.23-.52-.39-.19-.37-.23-.64c-.04-.19-.05-.58-.05-1.16v-2.71h-.76v-1.31h.76v-1.24l1.65-.96v2.2h1.12Z"/>
        <path d="M49.86,64.67v-1.28l2.33-2.68c.38-.44.67-.75.85-.93-.19.01-.44.02-.76.02h-2.2s0-1.35,0-1.35h5.14v1.17l-2.38,2.74-.84.91c.46-.03.74-.04.85-.04h2.55v1.45h-5.55Z"/>
        <path d="M58.17,56.08v3.16c.53-.62,1.17-.93,1.9-.93.38,0,.72.07,1.03.21s.53.32.69.54.26.46.32.73.08.68.08,1.24v3.65h-1.65v-3.29c0-.65-.03-1.07-.09-1.24s-.17-.32-.33-.42-.36-.16-.59-.16c-.27,0-.52.07-.73.2s-.37.33-.47.6-.15.66-.15,1.19v3.12h-1.65v-8.59h1.65Z"/>
        <path d="M65.09,60.34l-1.49-.27c.17-.6.46-1.05.87-1.34s1.02-.43,1.83-.43c.73,0,1.28.09,1.64.26s.61.39.76.66.22.76.22,1.47l-.02,1.92c0,.55.03.95.08,1.21s.15.54.3.83h-1.63c-.04-.11-.1-.27-.16-.49-.03-.1-.05-.16-.06-.19-.28.27-.58.48-.9.62s-.66.21-1.03.21c-.64,0-1.15-.17-1.51-.52s-.55-.79-.55-1.32c0-.35.08-.67.25-.94s.4-.49.71-.63.74-.27,1.31-.38c.77-.14,1.3-.28,1.6-.4v-.16c0-.32-.08-.54-.23-.68s-.45-.2-.88-.2c-.29,0-.52.06-.69.17s-.3.32-.4.61ZM67.29,61.68c-.21.07-.54.15-1,.25s-.76.19-.9.29c-.21.15-.32.35-.32.58s.09.43.26.6.39.25.66.25c.3,0,.58-.1.85-.29.2-.15.33-.33.39-.54.04-.14.06-.41.06-.8v-.33Z"/>
        <path d="M70.53,64.67v-8.59h1.65v8.59h-1.65Z"/>
        <path d="M76.72,58.45v1.31h-1.12v2.51c0,.51.01.8.03.89s.07.15.15.21.17.08.28.08c.15,0,.37-.05.66-.16l.14,1.28c-.38.16-.82.25-1.3.25-.3,0-.56-.05-.8-.15s-.41-.23-.52-.39-.19-.37-.23-.64c-.04-.19-.05-.58-.05-1.16v-2.71h-.76v-1.31h.76v-1.24l1.65-.96v2.2h1.12Z"/>
        <path d="M81.46,62.69l1.64.28c-.21.6-.54,1.06-1,1.37s-1.02.47-1.71.47c-1.08,0-1.88-.35-2.4-1.06-.41-.57-.62-1.28-.62-2.14,0-1.03.27-1.84.81-2.42s1.22-.88,2.04-.88c.93,0,1.66.31,2.19.92s.79,1.55.77,2.81h-4.12c.01.49.14.87.4,1.14s.57.41.95.41c.26,0,.47-.07.65-.21s.31-.37.4-.68ZM81.56,61.02c-.01-.48-.13-.84-.37-1.09s-.52-.37-.86-.37c-.36,0-.66.13-.89.39s-.35.62-.35,1.07h2.46Z"/>
        <path d="M86.11,64.67h-1.65v-6.22h1.53v.88c.26-.42.5-.69.71-.83s.45-.2.71-.2c.38,0,.74.1,1.08.31l-.51,1.44c-.28-.18-.54-.27-.77-.27s-.43.06-.59.19-.29.36-.38.69-.14,1.03-.14,2.09v1.92Z"/>
      </g>
      <path d="M125.75,57.98l4.08-4.04.83-.83c.12-.12.12-.32,0-.47l-.87-.87c-.16-.12-.36-.12-.48,0l-4.87,4.91-4.91-4.91c-.12-.12-.32-.12-.47,0l-.87.87c-.12.16-.12.36,0,.47l4.91,4.87-4.91,4.91c-.12.12-.12.32,0,.47l.87.87c.16.12.36.12.47,0l4.91-4.91,4.04,4.08.83.83c.12.12.32.12.48,0l.87-.87c.12-.16.12-.36,0-.47l-4.91-4.91Z" fill="#233c42"/>
      <g>
        <rect x="141.29" y="8.43" width="99.14" height="99.14" rx="49.57" ry="49.57" fill="#f7f8f8"/>
        <rect x="141.29" y="8.43" width="99.14" height="99.14" rx="49.57" ry="49.57" fill="none" stroke="#fff" stroke-width="3.72"/>
      </g>
      <g clip-path="url(#clippath-1)">
        <g>
          <path d="M194.44,37.57l-9.28,27.27c-.09.27-.24.52-.44.73-.2.21-.43.37-.7.48-.26.11-.55.16-.84.15-.29,0-.57-.08-.82-.21l-18.38-9.14c-1.93-.96-2.09-3.66-.29-4.84l26.76-17.55c2.13-1.4,4.81.7,3.99,3.11Z" fill="#19b776"/>
          <path d="M186.48,78.2l9.28-27.27c.09-.27.24-.52.44-.73.2-.21.43-.37.7-.48.26-.11.55-.16.84-.15.29.01.57.08.82.21l18.38,9.14c1.93.96,2.09,3.66.29,4.84l-26.76,17.55c-2.13,1.4-4.81-.7-3.99-3.11Z" fill="#19b776"/>
        </g>
      </g>
    </g>
  </g>
</svg>