<?xml version="1.0" encoding="UTF-8"?>
<svg id="Ebene_1" data-name="Ebene 1" xmlns="http://www.w3.org/2000/svg" width="87.79mm" height="40.92mm" xmlns:xlink="http://www.w3.org/1999/xlink" viewBox="0 0 248.86 116">
  <defs>
    <clipPath id="clippath">
      <rect width="248.86" height="116" fill="none"/>
    </clipPath>
    <clipPath id="clippath-1">
      <rect x="162.43" y="34" width="56.06" height="47.78" fill="none"/>
    </clipPath>
  </defs>
  <g clip-path="url(#clippath)">
    <g>
      <g>
        <rect x="8.43" y="8.43" width="99.14" height="99.14" rx="49.57" ry="49.57" fill="#f7f8f8"/>
        <rect x="8.43" y="8.43" width="99.14" height="99.14" rx="49.57" ry="49.57" fill="none" stroke="#fff" stroke-width="3.72"/>
      </g>
      <rect x="34.43" y="30" width="48.71" height="55.29" fill="#f7f8f8"/>
      <path d="M125.75,57.98l4.08-4.04.83-.83c.12-.12.12-.32,0-.47l-.87-.87c-.16-.12-.36-.12-.48,0l-4.87,4.91-4.91-4.91c-.12-.12-.32-.12-.47,0l-.87.87c-.12.16-.12.36,0,.47l4.91,4.87-4.91,4.91c-.12.12-.12.32,0,.47l.87.87c.16.12.36.12.47,0l4.91-4.91,4.04,4.08.83.83c.12.12.32.12.48,0l.87-.87c.12-.16.12-.36,0-.47l-4.91-4.91Z" fill="#233c42"/>
      <g>
        <rect x="141.29" y="8.43" width="99.14" height="99.14" rx="49.57" ry="49.57" fill="#f7f8f8"/>
        <rect x="141.29" y="8.43" width="99.14" height="99.14" rx="49.57" ry="49.57" fill="none" stroke="#fff" stroke-width="3.72"/>
      </g>
      <g clip-path="url(#clippath-1)">
        <g>
          <path d="M194.44,37.57l-9.28,27.27c-.09.27-.24.52-.44.73-.2.21-.43.37-.7.48-.26.11-.55.16-.84.15-.29,0-.57-.08-.82-.21l-18.38-9.14c-1.93-.96-2.09-3.66-.29-4.84l26.76-17.55c2.13-1.4,4.81.7,3.99,3.11Z" fill="#19b776"/>
          <path d="M186.48,78.2l9.28-27.27c.09-.27.24-.52.44-.73.2-.21.43-.37.7-.48.26-.11.55-.16.84-.15.29.01.57.08.82.21l18.38,9.14c1.93.96,2.09,3.66.29,4.84l-26.76,17.55c-2.13,1.4-4.81-.7-3.99-3.11Z" fill="#19b776"/>
        </g>
      </g>
      <path d="M27.33,38.23h61.31c3.88,0,7.02,3.14,7.02,7.02v23.4c0,3.88-3.14,7.02-7.02,7.02h-21.99l3.02,7.39-13.27-7.39h-29.04c-3.88,0-7.02-3.14-7.02-7.02v-23.4c-.03-3.85,3.11-7.02,6.99-7.02h0Z" fill="#7f54b3"/>
      <path d="M24.63,44.63c.43-.58,1.07-.89,1.93-.95,1.56-.12,2.45.61,2.66,2.2.95,6.4,1.99,11.82,3.09,16.26l6.71-12.77c.61-1.16,1.38-1.78,2.3-1.84,1.35-.09,2.17.77,2.51,2.57.77,4.07,1.75,7.53,2.91,10.47.8-7.78,2.14-13.38,4.04-16.84.46-.86,1.13-1.29,2.02-1.35.7-.06,1.35.15,1.93.61.58.46.89,1.04.95,1.75.03.55-.06,1.01-.31,1.47-1.19,2.2-2.17,5.91-2.97,11.05-.77,4.99-1.04,8.88-.86,11.67.06.77-.06,1.44-.37,2.02-.37.67-.92,1.04-1.62,1.1-.8.06-1.62-.31-2.42-1.13-2.85-2.91-5.11-7.26-6.77-13.04-1.99,3.92-3.46,6.86-4.41,8.82-1.81,3.46-3.34,5.24-4.62,5.33-.83.06-1.53-.64-2.14-2.11-1.56-4.01-3.25-11.76-5.05-23.24-.12-.8.06-1.5.49-2.05h0ZM90.43,49.43c-1.1-1.93-2.73-3.09-4.9-3.55-.58-.12-1.13-.18-1.65-.18-2.94,0-5.33,1.53-7.2,4.59-1.59,2.6-2.39,5.48-2.39,8.63,0,2.36.49,4.38,1.47,6.06,1.1,1.93,2.73,3.09,4.9,3.55.58.12,1.13.18,1.65.18,2.97,0,5.36-1.53,7.2-4.59,1.59-2.63,2.39-5.51,2.39-8.67.03-2.39-.49-4.38-1.47-6.03ZM86.57,57.92c-.43,2.02-1.19,3.52-2.33,4.53-.89.8-1.71,1.13-2.48.98-.73-.15-1.35-.8-1.81-1.99-.37-.95-.55-1.9-.55-2.79,0-.77.06-1.53.21-2.24.28-1.26.8-2.48,1.62-3.64,1.01-1.5,2.08-2.11,3.18-1.9.73.15,1.35.8,1.81,1.99.37.95.55,1.9.55,2.79,0,.8-.06,1.56-.21,2.27h0ZM71.26,49.43c-1.1-1.93-2.76-3.09-4.9-3.55-.58-.12-1.13-.18-1.65-.18-2.94,0-5.33,1.53-7.2,4.59-1.59,2.6-2.39,5.48-2.39,8.63,0,2.36.49,4.38,1.47,6.06,1.1,1.93,2.73,3.09,4.9,3.55.58.12,1.13.18,1.65.18,2.97,0,5.36-1.53,7.2-4.59,1.59-2.63,2.39-5.51,2.39-8.67,0-2.39-.49-4.38-1.47-6.03ZM67.37,57.92c-.43,2.02-1.19,3.52-2.33,4.53-.89.8-1.71,1.13-2.48.98-.73-.15-1.35-.8-1.81-1.99-.37-.95-.55-1.9-.55-2.79,0-.77.06-1.53.21-2.24.28-1.26.8-2.48,1.62-3.64,1.01-1.5,2.08-2.11,3.18-1.9.73.15,1.35.8,1.81,1.99.37.95.55,1.9.55,2.79.03.8-.06,1.56-.21,2.27h0Z" fill="#fff"/>
    </g>
  </g>
</svg>